<svg xmlns:svg="http://www.w3.org/2000/svg" xmlns="http://www.w3.org/2000/svg" viewBox="0 0 3188.9763 1062.9921" id="svg4684" version="1.1"><defs id="defs4686"/><metadata id="metadata4689"/><g id="layer3" display="inline"><rect transform="translate(0,10.629921)" id="rect5443" width="1080" height="1071.4286" x="-2.8571429" y="-13.352142" style="fill-opacity:1;fill:#2196f3;opacity:1"/></g><g id="layer4"><text transform="scale(0.9302619,1.0749661)" id="text5460" y="785.53247" x="1186.851" xml:space="preserve" style="-inkscape-font-specification:'Roboto Condensed, ';display:inline;fill-opacity:1;fill:#214478;font-family:'Roboto Condensed';font-size:841.4463501px;font-stretch:normal;font-style:normal;font-variant:normal;font-weight:normal;letter-spacing:0px;line-height:125%;opacity:0.6;word-spacing:0px"><tspan y="785.53247" x="1186.851" id="tspan5462" style="-inkscape-font-specification:'Roboto Bold';fill-opacity:1;fill:#214478;font-family:Roboto;font-size:841.4463501px;font-stretch:normal;font-style:normal;font-variant:normal;font-weight:bold">WALL</tspan></text></g><g id="layer1" transform="translate(0,10.629921)" display="inline"><path d="m40 658.79072 158.57143 0.71428 0.71428 43.57143 163.57143-1.42857 0.71429 40 117.14286-0.71429 0-37.85714 41.42857 0.71429 1.42857 82.85714-161.42857 0.71429 1.42857 33.57142 157.85714 0.71429 0.71429 37.85714 37.85714 0.71429 0-194.28572-77.85714-0.71428 0 32.14286-40 8.57142-0.71429-44.28571 37.14286-2.14286 0-40.71428 41.42857 0-0.71429-29.28572-42.14285-2.14286 0.71428-82.14285 79.28572-2.85715 1.42857-80.71428 40.71428-0.71429-0.71428-35-38.57143 0-0.71429-40.71428-76.42857 1.42857 0 31.42857 41.42857 0-2.85714 49.28571-152.85714-2.85714 0 36.42857 78.57143 0.71429-1.42857 45.71428-90 0.71429-1.42858-39.28571-37.85714-2.85715-0.71428-42.14285-75 0.71428 0.71428 45L195 467.36214l0-42.14285-37.85714-0.71429-1.42857-78.57143-119.285719 0 0.714286 74.28572 60 0.71428 2.142857 47.85715-60 0-0.714285 27.85714 43.571428 2.14286 0.714286 50-44.285714 0 0.714285 30.71428 73.571426 0.71429 0-77.14286 44.28572 1.42857 0.71428 40.71429 37.85715 0L195 499.505l107.85714 0.71429c0 0 0.71429 40.71428-2.14285 40.71428-2.85715 0-61.42858-2.14285-61.42858-2.14285L240 620.93357l75.71429-0.71428 0-27.14286-41.42858-0.71429 2.14286-47.14285 167.14286-1.42857-1.42857 80.71428-76.42857 2.14286-2.14286 40-126.42857-0.71429-1.42857-38.57143-37.85715-1.42857L195.71429 589.505 160 586.64786 157.85714 624.505 38.571429 625.93357Z" id="path5258" style="fill-opacity:1;fill-rule:evenodd;fill:#247abd"/><rect id="rect5260" width="38.57143" height="38.57143" x="197.14285" y="383.79071" style="fill-opacity:1;fill:#247abd;opacity:1"/><rect id="rect5262" width="77.14286" height="37.142857" x="238.57143" y="345.93359" style="fill-opacity:1;fill:#247abd;opacity:1"/><rect id="rect5264" width="274.28571" height="36.42857" x="40.714287" y="25.219288" style="fill-opacity:1;fill:#247abd;opacity:1"/><rect id="rect5266" width="32.142857" height="237.14285" x="40.714283" y="61.647858" style="fill-opacity:1;fill:#247abd;opacity:1"/><rect id="rect5268" width="32.857143" height="237.32143" x="282.14285" y="61.290714" style="fill-opacity:1;fill:#247abd;opacity:1"/><rect id="rect5270" width="209.28571" height="32.142857" x="72.857147" y="266.64786" style="fill-opacity:1;fill:#247abd;opacity:1"/><rect id="rect5272" width="117.14286" height="116.78571" x="118.21429" y="103.79072" style="fill-opacity:1;fill:#247abd;opacity:1"/><rect id="rect5274" width="36.42857" height="198.21428" x="362.5" y="184.14784" style="fill-opacity:1;fill:#247abd;opacity:1"/><rect id="rect5276" width="80.892853" height="35.357143" x="398.92856" y="225.93356" style="fill-opacity:1;fill:#247abd;opacity:1"/><rect id="rect5278" width="38.035713" height="38.214287" x="441.78571" y="261.29071" style="fill-opacity:1;fill:#247abd;opacity:1"/><rect id="rect5280" width="157.5" height="76.428574" x="482.14285" y="143.07642" style="fill-opacity:1;fill:#247abd;opacity:1"/><rect id="rect5282" width="37.5" height="39.642857" x="561.78571" y="103.43357" style="fill-opacity:1;fill:#247abd;opacity:1"/><rect id="rect5284" width="38.214287" height="81.071426" x="521.78571" y="219.14784" style="fill-opacity:1;fill:#247abd;opacity:1"/><rect id="rect5286" width="156.25" height="33.92857" x="362.5" y="24.862144" style="fill-opacity:1;fill:#247abd;opacity:1"/><rect id="rect5288" width="33.57143" height="41.785713" x="362.5" y="58.790714" style="fill-opacity:1;fill:#247abd;opacity:1"/><rect id="rect5290" width="35.17857" height="43.214287" x="483.57144" y="58.790714" style="fill-opacity:1;fill:#247abd;opacity:1"/><rect id="rect5292" width="36.07143" height="37.5" x="402.14285" y="103.79072" style="fill-opacity:1;fill:#247abd;opacity:1"/><rect id="rect5294" width="36.42857" height="33.92857" x="602.5" y="24.147858" style="fill-opacity:1;fill:#247abd;opacity:1"/><rect id="rect5296" width="36.42857" height="38.57143" x="642.85712" y="104.14786" style="fill-opacity:1;fill:#247abd;opacity:1"/><rect id="rect5298" width="41.428574" height="76.785713" x="398.92856" y="305.57645" style="fill-opacity:1;fill:#247abd;opacity:1"/><rect id="rect5321" width="277.32144" height="35.357143" x="765.89288" y="24.862141" style="fill-opacity:1;fill:#247abd;opacity:1"/><rect id="rect5323" width="34.642857" height="206.07143" x="765.71429" y="60.219284" style="fill-opacity:1;fill:#247abd;opacity:1"/><rect id="rect5325" width="277.67856" height="32.5" x="765.53571" y="265.93359" style="fill-opacity:1;fill:#247abd;opacity:1"/><rect id="rect5327" width="117.32143" height="115.89286" x="846.25" y="104.14786" style="fill-opacity:1;fill:#247abd;opacity:1"/><rect id="rect5329" width="31.964285" height="205.89287" x="1011.25" y="60.040714" style="fill-opacity:1;fill:#247abd;opacity:1"/><rect id="rect5331" width="281.42856" height="36.25" x="602.5" y="345.57645" style="fill-opacity:1;fill:#247abd;opacity:1"/><rect id="rect5333" width="35.17857" height="119.64286" x="685.35712" y="226.11214" style="fill-opacity:1;fill:#247abd;opacity:1"/><rect id="rect5335" width="37.857143" height="79.64286" x="602.5" y="265.93359" style="fill-opacity:1;fill:#247abd;opacity:1"/><rect id="rect5337" width="77.85714" height="79.642853" x="642.85712" y="381.64789" style="fill-opacity:1;fill:#247abd;opacity:1"/><rect id="rect5339" width="35.714287" height="40" x="766.42859" y="381.64786" style="fill-opacity:1;fill:#247abd;opacity:1"/><rect id="rect5341" width="73.571426" height="76.071426" x="970.53571" y="345.755" style="fill-opacity:1;fill:#247abd;opacity:1"/><rect id="rect5343" width="33.92857" height="39.285713" x="1010.1786" y="421.64786" style="fill-opacity:1;fill:#247abd;opacity:1"/><rect id="rect5345" width="38.035713" height="114.46429" x="641.42859" y="503.96927" style="fill-opacity:1;fill:#247abd;opacity:1"/><rect id="rect5347" width="76.428574" height="33.214287" x="679.28571" y="547.005" style="fill-opacity:1;fill:#247abd;opacity:1"/><rect id="rect5349" width="35.17857" height="160" x="766.42859" y="467.89786" style="fill-opacity:1;fill:#247abd;opacity:1"/><rect id="rect5351" width="36.964287" height="117.14286" x="886.07141" y="385.04071" style="fill-opacity:1;fill:#247abd;opacity:1"/><rect id="rect5353" width="42.32143" height="36.607143" x="922.85712" y="424.505" style="fill-opacity:1;fill:#247abd;opacity:1"/><rect id="rect5355" width="34.82143" height="113.21429" x="1009.2857" y="507.00504" style="fill-opacity:1;fill:#247abd;opacity:1"/><rect id="rect5357" width="77.5" height="33.57143" x="886.42859" y="586.64783" style="fill-opacity:1;fill:#247abd;opacity:1"/><rect id="rect5359" width="34.107143" height="36.42857" x="806.42859" y="425.04071" style="fill-opacity:1;fill:#247abd;opacity:1"/><rect id="rect5361" width="36.607143" height="33.92857" x="602.32141" y="626.11212" style="fill-opacity:1;fill:#247abd;opacity:1"/><rect id="rect5363" width="37.67857" height="76.25" x="602.14288" y="705.93353" style="fill-opacity:1;fill:#247abd;opacity:1"/><rect id="rect5365" width="196.96428" height="36.25" x="686.07141" y="665.93353" style="fill-opacity:1;fill:#247abd;opacity:1"/><rect id="rect5367" width="38.214287" height="36.42857" x="925.71429" y="705.39783" style="fill-opacity:1;fill:#247abd;opacity:1"/><rect id="rect5369" width="35.714287" height="36.785713" x="968.92859" y="665.39783" style="fill-opacity:1;fill:#247abd;opacity:1"/><rect id="rect5371" width="33.57143" height="76.071426" x="1009.8214" y="705.755" style="fill-opacity:1;fill:#247abd;opacity:1"/><rect id="rect5373" width="37.67857" height="126.96429" x="845.89288" y="700.755" style="fill-opacity:1;fill:#247abd;opacity:1"/><rect id="rect5375" width="40.357143" height="36.42857" x="883.03571" y="745.21924" style="fill-opacity:1;fill:#247abd;opacity:1"/><rect id="rect5377" width="33.392857" height="85.714287" x="686.25" y="702.18353" style="fill-opacity:1;fill:#247abd;opacity:1"/><rect id="rect5381" width="76.428574" height="112.14286" x="643.03571" y="787.71924" style="fill-opacity:1;fill:#247abd;opacity:1"/><rect id="rect5383" width="204.64285" height="35.35714" x="719.28571" y="827.71924" style="fill-opacity:1;fill:#247abd;opacity:1"/><rect id="rect5385" width="39.107143" height="45.357143" x="642.85712" y="899.505" style="fill-opacity:1;fill:#247abd;opacity:1"/><rect id="rect5387" width="36.964287" height="76.428574" x="602.67859" y="946.82642" style="fill-opacity:1;fill:#247abd;opacity:1"/><rect id="rect5389" width="33.57143" height="75.714287" x="686.25" y="947.005" style="fill-opacity:1;fill:#247abd;opacity:1"/><rect id="rect5391" width="36.785713" height="36.964287" x="886.78571" y="986.46924" style="fill-opacity:1;fill:#247abd;opacity:1"/><rect id="rect5393" width="34.464287" height="76.428574" x="765.89288" y="946.64783" style="fill-opacity:1;fill:#247abd;opacity:1"/><rect id="rect5395" width="83.035713" height="35.714287" x="800.35712" y="946.82642" style="fill-opacity:1;fill:#247abd;opacity:1"/><rect id="rect5397" width="37.142857" height="85.714287" x="846.25" y="861.11212" style="fill-opacity:1;fill:#247abd;opacity:1"/><rect id="rect5399" width="88.39286" height="37.32143" x="883.03571" y="862.54071" style="fill-opacity:1;fill:#247abd;opacity:1"/><rect id="rect5401" width="36.25" height="116.07143" x="970" y="827.89783" style="fill-opacity:1;fill:#247abd;opacity:1"/><rect id="rect5403" width="37.5" height="36.785713" x="1006.25" y="907.36212" style="fill-opacity:1;fill:#247abd;opacity:1"/><rect id="rect5405" width="35.17857" height="35.357143" x="1009.8214" y="987.005" style="fill-opacity:1;fill:#247abd;opacity:1"/><rect id="rect5407" width="35.892857" height="32.67857" x="442.5" y="827.89783" style="fill-opacity:1;fill:#247abd;opacity:1"/><rect id="rect5409" width="34.285713" height="115.35714" x="361.96429" y="907.18353" style="fill-opacity:1;fill:#247abd;opacity:1"/><rect id="rect5411" width="77.321426" height="36.25" x="441.96429" y="907.18353" style="fill-opacity:1;fill:#247abd;opacity:1"/><rect id="rect5413" width="37.32143" height="39.464287" x="482.32144" y="943.07642" style="fill-opacity:1;fill:#247abd;opacity:1"/><rect id="rect5415" width="37.5" height="75.89286" x="519.46429" y="947.005" style="fill-opacity:1;fill:#247abd;opacity:1"/><rect id="rect5417" width="43.214287" height="35.357143" x="396.07144" y="987.18353" style="fill-opacity:1;fill:#247abd;opacity:1"/><rect id="rect5419" width="277.32144" height="36.964287" x="37.857143" y="985.57642" style="fill-opacity:1;fill:#247abd;opacity:1"/><rect id="rect5421" width="117.32143" height="115.35714" x="118.75" y="827.71924" style="fill-opacity:1;fill:#247abd;opacity:1"/><rect id="rect5423" width="277.14285" height="38.75" x="38.035713" y="744.86212" style="fill-opacity:1;fill:#247abd;opacity:1"/><rect id="rect5425" width="33.035713" height="202.67857" x="282.14285" y="783.07642" style="fill-opacity:1;fill:#247abd;opacity:1"/><rect id="rect5427" width="33.571426" height="202.14285" x="38.035717" y="783.61212" style="fill-opacity:1;fill:#247abd;opacity:1"/><text id="text5452" y="600.93353" x="41.42857" xml:space="preserve" style="-inkscape-font-specification:'Roboto Condensed, ';fill-opacity:1;fill:#214478;font-family:'Roboto Condensed';font-size:312.5px;font-stretch:normal;font-style:normal;font-variant:normal;font-weight:normal;letter-spacing:0px;line-height:125%;opacity:0.6;word-spacing:0px"><tspan y="600.93353" x="41.42857" id="tspan5454" style="-inkscape-font-specification:'Roboto Condensed, ';fill:#214478;font-family:'Roboto Condensed';font-size:312.5px;font-stretch:normal;font-style:normal;font-variant:normal;font-weight:normal">numeric</tspan></text></g><g id="layer5"><text xml:space="preserve" x="35.714287" y="590.93353" id="text5438" transform="translate(0,10.629921)" style="-inkscape-font-specification:'Roboto Condensed, ';display:inline;fill-opacity:1;fill:#fff;font-family:'Roboto Condensed';font-size:312.5px;font-stretch:normal;font-style:normal;font-variant:normal;font-weight:normal;letter-spacing:0px;line-height:125%;word-spacing:0px"><tspan id="tspan5440" x="35.714287" y="590.93353" style="-inkscape-font-specification:'Roboto Condensed, ';fill:#fff;font-family:'Roboto Condensed';font-size:312.5px;font-stretch:normal;font-style:normal;font-variant:normal;font-weight:normal">numeric</tspan></text></g><g id="layer2" display="inline"><text xml:space="preserve" x="1173.9514" y="770.91412" id="text5429" transform="scale(0.9302619,1.0749661)" style="-inkscape-font-specification:'Roboto Condensed, ';fill-opacity:1;fill:#fff;font-family:'Roboto Condensed';font-size:841.4463501px;font-stretch:normal;font-style:normal;font-variant:normal;font-weight:normal;letter-spacing:0px;line-height:125%;word-spacing:0px"><tspan id="tspan5431" x="1173.9514" y="770.91412" style="-inkscape-font-specification:'Roboto Bold';fill-opacity:1;fill:#fff;font-family:Roboto;font-size:841.4463501px;font-stretch:normal;font-style:normal;font-variant:normal;font-weight:bold">WALL</tspan></text></g></svg>
