<svg xmlns="http://www.w3.org/2000/svg" viewBox="0 0 106 31">
  <path fill="#7d5ccf" d="M0-.02h31.128v31.042H0z"/>
  <path d="M49.466 19.416h.04L52 5h3.777l-4.18 21.01h-3.602l-3.32-13.838h-.055l-3.322 13.84h-3.602L33.514 5h3.79l2.492 14.402h.04L43.226 5h2.826l3.416 14.416zm18.844 2.006h-6.843l-1.326 4.59h-3.95L62.9 5h4.004l6.684 21.01h-3.95l-1.327-4.588zm-5.906-3.247h4.97L64.908 9.66h-.04l-2.466 8.515zm17.05 4.605h8.68v3.23h-12.59V5h3.91v17.78zm15 0h8.68v3.23h-12.59V5h3.91v17.78z" style="-inkscape-font-specification:'Roboto Bold'" font-size="28.472" font-family="Roboto" letter-spacing="0" word-spacing="0" fill="#fff" font-weight="bold"/>
  <path d="M1.006 1.5h7m2 0h1m1 0h2m3 0h1m5 0h7m-29 1h1m5 0h1m3 0h1m2 0h1m2 0h1m1 0h1m3 0h1m5 0h1m-29 1h1m1 0h3m1 0h1m2 0h5m1 0h2m2 0h1m2 0h1m1 0h3m1 0h1m-29 1h1m1 0h3m1 0h1m3 0h1m1 0h4m1 0h2m1 0h1m1 0h1m1 0h3m1 0h1m-29 1h1m1 0h3m1 0h1m1 0h2m3 0h1m1 0h2m2 0h1m2 0h1m1 0h3m1 0h1m-29 1h1m5 0h1m2 0h3m1 0h1m3 0h4m1 0h1m5 0h1m-29 1h7m1 0h1m1 0h1m1 0h1m1 0h1m1 0h1m1 0h1m1 0h1m1 0h7m-21 1h2m4 0h2m-14 1h2m2 0h5m7 0h2m1 0h2m1 0h1m-23 1h1m1 0h2m2 0h1m2 0h2m3 0h1m1 0h1m1 0h1m1 0h3m1 0h1m1 0h1m-29 1h2m1 0h1m1 0h2m1 0h1m2 0h5m3 0h2m1 0h6m-28 1h1m2 0h1m1 0h1m1 0h4m2 0h1m1 0h2m3 0h1m2 0h1m4 0h1m-28 1h1m4 0h2m2 0h1m1 0h1m1 0h1m1 0h4m1 0h1m1 0h1m2 0h3m-26 1h2m4 0h3m2 0h1m4 0h1m2 0h2m1 0h2m1 0h1m-29 1h1m1 0h1m3 0h1m1 0h3m3 0h3m2 0h1m2 0h4m1 0h2m-28 1h1m2 0h2m1 0h2m1 0h2m2 0h1m1 0h1m3 0h3m1 0h2m-25 1h3m2 0h3m2 0h2m7 0h1m2 0h3m1 0h2m-26 1h1m1 0h1m2 0h1m1 0h2m1 0h2m1 0h1m1 0h2m3 0h1m2 0h1m-27 1h1m1 0h1m3 0h1m1 0h1m1 0h4m4 0h1m1 0h1m1 0h1m3 0h1m-25 1h1m1 0h1m2 0h1m1 0h1m2 0h3m5 0h3m1 0h4m-27 1h1m1 0h1m2 0h3m1 0h1m2 0h1m4 0h11m-21 1h2m3 0h1m2 0h1m3 0h1m3 0h2m1 0h2m-29 1h7m1 0h1m1 0h1m1 0h1m3 0h5m1 0h1m1 0h1m1 0h2m-28 1h1m5 0h1m3 0h1m3 0h2m4 0h1m3 0h1m2 0h2m-29 1h1m1 0h3m1 0h1m3 0h2m2 0h3m1 0h1m1 0h7m1 0h1m-29 1h1m1 0h3m1 0h1m1 0h2m3 0h3m1 0h1m1 0h1m4 0h4m-28 1h1m1 0h3m1 0h1m1 0h1m1 0h3m3 0h1m3 0h1m2 0h1m1 0h1m2 0h1m-29 1h1m5 0h1m5 0h1m1 0h1m1 0h1m3 0h1m1 0h1m1 0h1m2 0h1m-28 1h7m2 0h3m1 0h1m3 0h7m3 0h1" fill="#4f2d94" stroke="#4f2d94"/>
  <path d="M21.906 14.444v1.07H11.38q.15 2.264 1.42 3.454 1.28 1.18 3.558 1.18 1.318 0 2.55-.31 1.244-.31 2.463-.93v2.072q-1.23.5-2.52.762t-2.625.262q-3.334 0-5.287-1.857-1.94-1.857-1.94-5.025 0-3.274 1.84-5.19Q12.688 8 15.828 8q2.81 0 4.44 1.74 1.64 1.725 1.64 4.702zm-2.29-.643q-.024-1.793-1.056-2.87-1.02-1.07-2.712-1.07-1.916 0-3.073 1.04-1.145 1.036-1.32 2.917l8.162-.012z" style="-inkscape-font-specification:Aril" font-size="24.926" font-family="Aril" fill="#fff" letter-spacing="0" word-spacing="0"/>
  <path d="M80.727-11.666h4.93S81.882 9.092 82 9.084c.117-.008 8.625-.03 8.625-.03l-.79 4.28H76.392z" fill="none"/>
</svg>
