<?xml version="1.0" encoding="UTF-8" standalone="no"?>
<!-- Created with Inkscape (http://www.inkscape.org/) -->

<svg
   xmlns:dc="http://purl.org/dc/elements/1.1/"
   xmlns:cc="http://creativecommons.org/ns#"
   xmlns:rdf="http://www.w3.org/1999/02/22-rdf-syntax-ns#"
   xmlns:svg="http://www.w3.org/2000/svg"
   xmlns="http://www.w3.org/2000/svg"
   xmlns:sodipodi="http://sodipodi.sourceforge.net/DTD/sodipodi-0.dtd"
   xmlns:inkscape="http://www.inkscape.org/namespaces/inkscape"
   id="svg2"
   version="1.1"
   inkscape:version="0.91 r13725"
   xml:space="preserve"
   width="354.32501"
   height="354.32501"
   viewBox="0 0 354.32501 354.32501"
   sodipodi:docname="emse.svg"><metadata
     id="metadata8"><rdf:RDF><cc:Work
         rdf:about=""><dc:format>image/svg+xml</dc:format><dc:type
           rdf:resource="http://purl.org/dc/dcmitype/StillImage" /><dc:title></dc:title></cc:Work></rdf:RDF></metadata><defs
     id="defs6" /><sodipodi:namedview
     pagecolor="#ffffff"
     bordercolor="#666666"
     borderopacity="1"
     objecttolerance="10"
     gridtolerance="10"
     guidetolerance="10"
     inkscape:pageopacity="0"
     inkscape:pageshadow="2"
     inkscape:window-width="680"
     inkscape:window-height="480"
     id="namedview4"
     showgrid="false"
     inkscape:zoom="0.66605515"
     inkscape:cx="177.16251"
     inkscape:cy="177.16251"
     inkscape:window-x="2709"
     inkscape:window-y="160"
     inkscape:window-maximized="0"
     inkscape:current-layer="g10" /><g
     id="g10"
     inkscape:groupmode="layer"
     inkscape:label="ink_ext_XXXXXX"
     transform="matrix(1.25,0,0,-1.25,0,354.325)"><g
       id="g12"
       transform="scale(0.1,0.1)"><path
         d="m 0,0 2834.65,0 0,2834.65 L 0,2834.65 0,0 Z"
         style="fill:#ffffff;fill-opacity:1;fill-rule:nonzero;stroke:none"
         id="path14"
         inkscape:connector-curvature="0" /><path
         d="m 451.113,421.43 c -41.726,0 -71.758,9.742 -98.281,36.66 l 28.074,27.68 c 20.285,-20.282 42.524,-26.508 70.989,-26.508 36.269,0 57.332,15.597 57.332,42.5 0,12.09 -3.512,22.238 -10.918,28.867 -7.02,6.633 -14.043,9.351 -30.426,11.703 L 435.129,547 c -22.629,3.129 -40.57,10.93 -52.66,22.238 -13.653,12.871 -20.281,30.422 -20.281,53.043 0,48.367 35.109,81.508 92.832,81.508 36.66,0 62.402,-9.348 86.191,-31.59 l -26.914,-26.508 c -17.16,16.368 -37.051,21.438 -60.449,21.438 -32.762,0 -50.703,-18.719 -50.703,-43.289 0,-10.149 3.117,-19.11 10.527,-25.738 7.019,-6.243 18.332,-10.922 31.199,-12.872 l 31.594,-4.679 c 25.742,-3.91 40.176,-10.141 51.875,-20.68 15.207,-13.25 22.617,-33.152 22.617,-56.941 0,-51.09 -41.73,-81.5 -99.844,-81.5"
         style="fill:#4f5b65;fill-opacity:1;fill-rule:nonzero;stroke:none"
         id="path16"
         inkscape:connector-curvature="0" /><path
         d="m 689.012,511.121 -46.407,0 c -23.406,0 -35.496,-10.531 -35.496,-28.461 0,-17.949 11.321,-28.09 36.278,-28.09 15.207,0 26.515,1.168 37.051,11.309 5.851,5.859 8.574,15.223 8.574,29.262 l 0,15.98 z m 0.785,-87.359 0,17.937 C 675.359,427.27 661.719,421.43 637.148,421.43 c -24.57,0 -40.957,5.84 -53.046,17.929 -10.137,10.532 -15.594,25.743 -15.594,42.52 0,33.141 23.004,56.93 68.25,56.93 l 52.254,0 0,14.043 c 0,24.957 -12.481,37.046 -43.289,37.046 -21.836,0 -32.375,-5.058 -43.293,-19.097 l -26.129,24.57 c 18.719,21.84 38.219,28.469 70.984,28.469 54.207,0 81.516,-23.02 81.516,-67.86 l 0,-132.218 -39.004,0"
         style="fill:#4f5b65;fill-opacity:1;fill-rule:nonzero;stroke:none"
         id="path18"
         inkscape:connector-curvature="0" /><path
         d="m 770.516,423.762 0,197.75 39.789,0 0,-197.75 -39.789,0 z m -1.172,236.738 0,42.121 42.129,0 0,-42.121 -42.129,0"
         style="fill:#4f5b65;fill-opacity:1;fill-rule:nonzero;stroke:none"
         id="path20"
         inkscape:connector-curvature="0" /><path
         d="m 974.492,423.762 0,120.519 c 0,30.809 -17.551,44.059 -39.785,44.059 -22.227,0 -40.945,-13.641 -40.945,-44.059 l 0,-120.519 -39.789,0 0,197.75 39.004,0 0,-19.91 c 13.656,14.828 32.765,22.238 52.66,22.238 20.269,0 37.047,-6.629 48.75,-17.942 15.203,-14.816 19.893,-33.539 19.893,-55.769 l 0,-126.367 -39.788,0"
         style="fill:#4f5b65;fill-opacity:1;fill-rule:nonzero;stroke:none"
         id="path22"
         inkscape:connector-curvature="0" /><path
         d="m 1114.88,423.762 c -37.05,0 -54.21,26.519 -54.21,54.988 l 0,108.82 -22.61,0 0,30.418 22.61,0 0,60.063 39.79,0 0,-60.063 38.21,0 0,-30.418 -38.21,0 0,-106.871 c 0,-14.429 7.01,-23 21.83,-23 l 16.38,0 0,-33.937 -23.79,0"
         style="fill:#4f5b65;fill-opacity:1;fill-rule:nonzero;stroke:none"
         id="path24"
         inkscape:connector-curvature="0" /><path
         d="m 1164.41,513.461 113.879,0 0,37.0508 -113.879,0 0,-37.0508 z"
         style="fill:#4f5b65;fill-opacity:1;fill-rule:nonzero;stroke:none"
         id="path26"
         inkscape:connector-curvature="0" /><path
         d="m 1415.97,728.359 -30.03,0 29.25,63.18 44.07,0 -43.29,-63.18 z m -94.78,-304.597 0,277.687 177.46,0 0,-37.84 -135.34,0 0,-81.109 115.45,0 0,-37.441 -115.45,0 0,-83.469 135.34,0 0,-37.828 -177.46,0"
         style="fill:#4f5b65;fill-opacity:1;fill-rule:nonzero;stroke:none"
         id="path28"
         inkscape:connector-curvature="0" /><path
         d="m 1591.07,423.762 c -37.05,0 -54.21,26.519 -54.21,54.988 l 0,108.82 -22.62,0 0,30.418 22.62,0 0,60.063 39.78,0 0,-60.063 38.22,0 0,-30.418 -38.22,0 0,-106.871 c 0,-14.429 7.02,-23 21.85,-23 l 16.37,0 0,-33.937 -23.79,0"
         style="fill:#4f5b65;fill-opacity:1;fill-rule:nonzero;stroke:none"
         id="path30"
         inkscape:connector-curvature="0" /><path
         d="m 1646.05,423.762 0,197.75 39.79,0 0,-197.75 -39.79,0 z m -1.17,236.738 0,42.121 42.13,0 0,-42.121 -42.13,0"
         style="fill:#4f5b65;fill-opacity:1;fill-rule:nonzero;stroke:none"
         id="path32"
         inkscape:connector-curvature="0" /><path
         d="m 1842.23,565.719 c -6.24,14.832 -20.29,24.972 -39.01,24.972 -18.72,0 -33.14,-10.14 -39.38,-24.972 -3.91,-8.957 -4.69,-14.821 -5.07,-26.91 l 88.92,0 c -0.4,12.089 -1.56,17.953 -5.46,26.91 z m -83.46,-54.598 c 0,-33.93 17.94,-55.383 50.3,-55.383 22.24,0 33.94,6.242 47.98,20.282 l 25.35,-23.79 c -20.28,-20.281 -39.39,-30.8 -74.1,-30.8 -49.53,0 -88.93,26.121 -88.93,101.39 0,63.969 33.16,101.02 83.85,101.02 53.05,0 83.86,-39 83.86,-95.168 l 0,-17.551 -128.31,0"
         style="fill:#4f5b65;fill-opacity:1;fill-rule:nonzero;stroke:none"
         id="path34"
         inkscape:connector-curvature="0" /><path
         d="m 2040.73,423.762 0,120.519 c 0,30.809 -17.55,44.059 -39.78,44.059 -22.23,0 -40.95,-13.641 -40.95,-44.059 l 0,-120.519 -39.79,0 0,197.75 39.01,0 0,-19.91 c 13.65,14.828 32.76,22.238 52.65,22.238 20.28,0 37.06,-6.629 48.75,-17.942 15.21,-14.816 19.9,-33.539 19.9,-55.769 l 0,-126.367 -39.79,0"
         style="fill:#4f5b65;fill-opacity:1;fill-rule:nonzero;stroke:none"
         id="path36"
         inkscape:connector-curvature="0" /><path
         d="m 2242.75,423.762 0,120.519 c 0,30.809 -17.55,44.059 -39.78,44.059 -22.23,0 -40.95,-13.641 -40.95,-44.059 l 0,-120.519 -39.78,0 0,197.75 39,0 0,-19.91 c 13.65,14.828 32.76,22.238 52.66,22.238 20.27,0 37.05,-6.629 48.75,-17.942 15.2,-14.816 19.89,-33.539 19.89,-55.769 l 0,-126.367 -39.79,0"
         style="fill:#4f5b65;fill-opacity:1;fill-rule:nonzero;stroke:none"
         id="path38"
         inkscape:connector-curvature="0" /><path
         d="m 2436.97,565.719 c -6.24,14.832 -20.28,24.972 -39,24.972 -18.72,0 -33.16,-10.14 -39.4,-24.972 -3.89,-8.957 -4.67,-14.821 -5.06,-26.91 l 88.92,0 c -0.39,12.089 -1.56,17.953 -5.46,26.91 z m -83.46,-54.598 c 0,-33.93 17.94,-55.383 50.31,-55.383 22.22,0 33.93,6.242 47.97,20.282 l 25.35,-23.79 c -20.28,-20.281 -39.39,-30.8 -74.1,-30.8 -49.53,0 -88.93,26.121 -88.93,101.39 0,63.969 33.16,101.02 83.86,101.02 53.04,0 83.85,-39 83.85,-95.168 l 0,-17.551 -128.31,0"
         style="fill:#4f5b65;fill-opacity:1;fill-rule:nonzero;stroke:none"
         id="path40"
         inkscape:connector-curvature="0" /><path
         d="m 1005.39,1936.77 638.99,336.48 67.6,35.61 c -1.72,0.93 -3.45,1.9 -5.18,2.79 -7.49,3.83 -22.33,11.24 -40.39,19.3 -26.4,11.78 -59.32,24.86 -85.38,29.92 -0.69,0.09 -1.45,0.3 -2.13,0.45 l -0.02,-0.03 c -0.75,0.16 -101.79,21.24 -161.36,21.24 -331.36,0 -600.071,-256.35 -600.071,-572.6 0,-44.35 5.496,-87.44 15.492,-128.86 l -634.711,-489.72 673.594,380.6 0.281,-0.58 c 7.938,-16.66 16.766,-33.39 26.36,-49.08 l -420.121,-338.79 492.586,244.07 0.015,0 56.315,50.3 349.14,311.9 -406.439,-227.45 c -39.746,73.52 -63.07,158.63 -63.07,248.31 0,285.11 228.679,516.36 510.629,516.36 34.68,0 68.47,-3.55 101.27,-10.17 l -0.01,-0.01 -513.39,-380.04"
         style="fill:#522b93;fill-opacity:1;fill-rule:nonzero;stroke:none"
         id="path42"
         inkscape:connector-curvature="0" /><path
         d="m 1733.44,2287.59 -497.3,-400.53 603.97,327.93 214.89,219.46 -321.56,-146.86"
         style="fill:#522b93;fill-opacity:1;fill-rule:nonzero;stroke:none"
         id="path44"
         inkscape:connector-curvature="0" /><path
         d="m 2001.76,1941.38 634.66,493.07 -674.81,-382.85 c 0.38,-0.9 0.67,-1.76 1.05,-2.66 -0.42,0.85 -0.83,1.74 -1.25,2.56 l 0.2,0.1 c -8.4,17.2 -17.66,33.86 -27.73,50.07 l 399.39,328.29 -470.32,-236.32 -7.03,-3.5 -50.44,-43.9 -349.9,-304.51 409.08,218.36 c 40.41,-73.91 63.51,-158.94 63.51,-249.47 0,-285.16 -228.59,-516.3 -510.63,-516.3 -34.59,0 -68.36,3.53 -101.04,10.17 l 510.02,387.57 -633.53,-345.28 -67.48,-36.78 c 0.37,-0.21 0.74,-0.4 1.1,-0.59 39.99,-21.22 82.74,-38.22 127.66,-50.35 0.62,-0.14 1.23,-0.29 1.84,-0.43 51.4,-13.74 105.47,-21.29 161.45,-21.29 331.43,0 600.09,256.33 600.09,572.6 0,46.42 -5.94,91.51 -16.86,134.68 0.63,-2.05 0.97,-3.24 0.97,-3.24"
         style="fill:#522b93;fill-opacity:1;fill-rule:nonzero;stroke:none"
         id="path46"
         inkscape:connector-curvature="0" /><path
         d="m 1059.4,1442.76 -66.888,-36.99 0,0 -220.074,-226.88 323.362,147.65 0.12,0.11 54.07,44.25 459.46,375.84 -550.05,-303.98"
         style="fill:#522b93;fill-opacity:1;fill-rule:nonzero;stroke:none"
         id="path48"
         inkscape:connector-curvature="0" /><path
         d="m 1139.02,1124.12 c 11.87,-112.79 24.66,-225.14 36.99,-312.382 -8.22,0.473 -14.61,1.383 -21.46,1.383 -7.31,0 -14.61,-0.91 -21.47,-1.383 -7.76,91.801 -16.89,190.452 -23.29,235.662 -52.98,-94.529 -92.26,-167.599 -119.649,-230.63 l -5.028,0 -25.117,51.609 c -29.23,60.269 -61.203,119.652 -92.258,179.021 -10.047,-89.06 -22.371,-179.478 -22.371,-235.662 -5.937,0.473 -10.969,1.383 -15.988,1.383 -5.938,0 -10.957,-0.91 -16.445,-1.383 11.875,73.532 39.277,264.432 43.847,312.382 l 11.875,0 c 36.535,-72.61 80.383,-158.472 129.25,-239.3 43.374,78.09 85.404,157.56 131.524,239.3 l 9.59,0"
         style="fill:#522b93;fill-opacity:1;fill-rule:nonzero;stroke:none"
         id="path50"
         inkscape:connector-curvature="0" /><path
         d="m 1219.36,1124.12 c 6.4,-0.45 13.24,-1.36 20.1,-1.36 6.38,0 12.78,0.91 20.09,1.36 l 0,-312.382 c -7.31,0.473 -13.71,1.383 -20.09,1.383 -6.86,0 -13.7,-0.91 -20.1,-1.383 l 0,312.382"
         style="fill:#522b93;fill-opacity:1;fill-rule:nonzero;stroke:none"
         id="path52"
         inkscape:connector-curvature="0" /><path
         d="m 1590.64,811.738 -13.7,0 c -5.02,6.41 -14.15,17.364 -23.74,27.871 l -197.3,218.301 -4.57,0 0,-246.172 c -4.56,0.473 -8.67,1.383 -12.78,1.383 -4.57,0 -8.68,-0.91 -12.79,-1.383 l 0,312.382 17.81,0 216.93,-235.19 4.57,0 0,235.19 c 4.1,-0.45 8.22,-1.36 12.79,-1.36 4.11,0 8.22,0.91 12.78,1.36 l 0,-312.382"
         style="fill:#522b93;fill-opacity:1;fill-rule:nonzero;stroke:none"
         id="path54"
         inkscape:connector-curvature="0" /><path
         d="m 1686.52,988.031 70.78,0 c 13.7,0 26.95,1.828 40.65,2.278 -0.46,-3.649 -1.37,-7.758 -1.37,-11.868 0,-3.652 0.91,-7.761 1.37,-12.793 -13.7,0.461 -26.95,2.282 -40.65,2.282 l -70.78,0 0,-133.352 c 27.85,-0.91 55.25,0.91 82.65,1.832 14.16,0.461 27.87,1.82 42.03,4.11 -0.46,-5.032 -1.38,-9.129 -1.38,-13.7 0,-4.57 0.92,-9.14 1.38,-13.699 l -164.88,0 0,310.999 162.13,0 c -0.46,-5.02 -1.37,-9.13 -1.37,-13.69 0,-4.57 0.91,-9.14 1.37,-13.71 -13.7,2.74 -27.4,4.12 -41.1,5.03 l -45.67,0.91 -35.16,0 0,-114.629"
         style="fill:#522b93;fill-opacity:1;fill-rule:nonzero;stroke:none"
         id="path56"
         inkscape:connector-curvature="0" /><path
         d="m 1847.71,873.398 c 17.81,-29.226 38.36,-47.5 73.98,-47.5 37,0 63.48,30.614 63.48,66.68 0,84.942 -142.94,47.5 -142.94,150.712 0,58.92 46.58,87.69 101.39,87.69 21.91,0 48.41,-6.86 65.3,-21.93 -5.48,-11.87 -8.67,-24.65 -12.32,-37.45 l -4.57,0 c -9.59,24.67 -29.69,39.74 -56.63,39.74 -31.52,0 -57.55,-21.01 -57.55,-53.43 0,-84.039 143.86,-50.24 143.86,-147.519 0,-65.313 -50.69,-104.121 -112.8,-104.121 -22.38,0 -58.92,9.589 -74.44,26.492 4.56,13.238 6.84,26.937 8.67,40.636 l 4.57,0"
         style="fill:#522b93;fill-opacity:1;fill-rule:nonzero;stroke:none"
         id="path58"
         inkscape:connector-curvature="0" /></g></g></svg>